# Blender 4.2.2 LTS
# www.blender.org
mtllib nepal_block.mtl
o Block_nepal
v 0.534938 1.279792 -0.499181
v -0.708128 1.279792 -0.495628
v -0.635390 0.020051 -0.130947
v -0.635390 0.020051 0.130947
v 0.462200 0.020051 0.130947
v 0.462200 0.020051 -0.130946
v 0.462200 0.272020 -0.150734
v 0.462200 0.272020 0.150735
v -0.635390 0.272020 0.130947
v -0.635390 0.272020 -0.130947
v 0.534938 1.279792 -0.170713
v 0.534938 1.279792 0.170714
v -0.708128 1.279792 0.142698
v -0.708128 1.279792 -0.142698
v -0.086595 1.702474 -0.499178
v -0.635390 0.830682 0.114333
v -0.635390 0.830682 -0.114166
v 0.576674 1.279792 0.174186
v 0.576674 1.279792 0.509334
v -0.749864 1.279792 -0.145601
v -0.749864 1.279792 -0.505708
v 0.576674 1.279792 -0.509334
v 0.576674 1.279792 -0.174186
v -0.749864 1.279792 0.505708
v -0.749864 1.279792 0.145601
v 0.309611 1.874044 0.174186
v 0.042548 1.945603 0.174186
v 0.042548 1.945603 0.509334
v 0.309611 1.874044 0.509334
v 0.505115 1.678540 0.174186
v 0.505115 1.678540 0.509334
v 0.576674 1.411477 0.174186
v 0.576674 1.411477 0.509334
v -0.482801 1.874044 -0.174186
v -0.215738 1.945603 -0.174186
v -0.215738 1.945603 -0.509334
v -0.482801 1.874044 -0.509334
v -0.678305 1.678540 -0.174186
v -0.678305 1.678540 -0.509334
v -0.749864 1.411477 -0.163534
v -0.749864 1.411477 -0.509312
v 0.309611 1.874044 -0.509333
v 0.042548 1.945603 -0.509333
v 0.042548 1.945603 -0.174185
v 0.309611 1.874044 -0.174185
v 0.505115 1.678540 -0.509333
v 0.505115 1.678540 -0.174185
v 0.576674 1.411477 -0.509333
v 0.576674 1.411477 -0.174185
v -0.482801 1.874044 0.509334
v -0.215738 1.945603 0.509334
v -0.215738 1.945603 0.174186
v -0.482801 1.874044 0.174186
v -0.678305 1.678540 0.509334
v -0.678305 1.678540 0.174186
v -0.749864 1.411477 0.509312
v -0.749864 1.411477 0.163534
v 0.451202 0.020051 -0.382898
v 0.462200 0.020051 -0.371755
v 0.462200 0.020051 0.371756
v 0.451202 0.020051 0.382899
v -0.635390 0.020051 -0.370497
v -0.624392 0.020051 -0.382899
v -0.624392 0.020051 0.382899
v -0.635390 0.020051 0.370497
v 0.451203 1.268794 -0.440632
v 0.451087 1.279792 -0.450481
v 0.474648 1.279792 -0.429630
v 0.462200 1.268794 -0.429630
v 0.451202 0.272020 -0.440761
v 0.462200 0.272020 -0.429624
v -0.624392 0.272020 0.440762
v -0.635390 0.272020 0.428316
v -0.624393 1.268795 0.428075
v -0.624518 1.279792 0.438623
v -0.646713 1.279792 0.415318
v -0.635390 1.271599 0.415318
v 0.462200 1.268794 0.429630
v 0.474648 1.279792 0.429630
v 0.451087 1.279792 0.450482
v 0.451203 1.268794 0.440632
v 0.462200 0.272020 0.429625
v 0.451202 0.272020 0.440762
v -0.624393 1.268795 -0.428075
v -0.635390 1.271599 -0.415318
v -0.646713 1.279792 -0.415318
v -0.624518 1.279792 -0.438623
v -0.635390 0.272020 -0.428316
v -0.624392 0.272020 -0.440762
v 0.473198 1.279792 -0.153755
v 0.462200 1.268794 -0.150734
v 0.462200 1.268794 0.150735
v 0.473198 1.279792 0.153756
v -0.646388 1.279792 0.117549
v -0.635390 1.271391 0.112450
v -0.635390 1.271391 -0.112450
v -0.646388 1.279792 -0.117549
v -0.635390 1.062767 0.086048
v -0.635390 1.051799 0.097892
v -0.635390 1.071267 0.102078
v -0.635390 1.051799 -0.097892
v -0.635390 1.062767 -0.086048
v -0.635390 1.071267 -0.102078
v -1.026060 0.020051 -0.139714
v -1.014826 0.020051 -0.150166
v -1.014826 0.020051 0.150166
v -1.026060 0.020051 0.139714
v -1.014816 0.272020 0.150166
v -1.026060 0.272020 0.139713
v -1.026060 0.272020 -0.139713
v -1.014816 0.272020 -0.150166
v -0.791661 1.051935 0.108118
v -0.793975 1.062767 0.095316
v -1.026060 0.830682 0.131797
v -1.014801 0.830682 0.142001
v -0.950454 0.986047 0.127434
v -0.958084 0.994790 0.116886
v -1.014801 0.830682 -0.142001
v -1.026060 0.830682 -0.131797
v -0.791661 1.051935 -0.108118
v -0.793975 1.062767 -0.095316
v -0.950454 0.986047 -0.127434
v -0.958084 0.994790 -0.116886
v 0.534938 1.279792 0.499181
v -0.708128 1.279792 0.495628
v -0.086595 1.678519 0.499178
v -0.207611 1.919669 -0.499181
v -0.457870 1.852612 -0.499181
v -0.641072 1.669410 -0.499181
v -0.708128 1.419152 -0.499160
v 0.284680 1.852612 -0.499181
v 0.034422 1.919669 -0.499181
v 0.467882 1.669410 -0.499181
v 0.534938 1.419152 -0.499181
v 0.034422 1.919669 0.499181
v 0.284680 1.852612 0.499181
v 0.467882 1.669410 0.499181
v 0.534938 1.419152 0.499181
v -0.457870 1.852612 0.499181
v -0.207611 1.919669 0.499181
v -0.641072 1.669410 0.499181
v -0.708128 1.419152 0.499160
vn 1.0000 -0.0000 -0.0000
vn 0.2377 -0.0256 -0.9710
vn -0.0000 -1.0000 -0.0000
vn -1.0000 -0.0000 -0.0000
vn -0.0000 1.0000 -0.0000
vn -0.0000 -0.2238 0.9746
vn -0.0906 -0.3383 -0.9367
vn -0.0000 -0.2238 -0.9746
vn -0.2092 -0.2092 0.9552
vn -0.0014 -0.0127 -0.9999
vn -0.2473 -0.0663 -0.9667
vn -0.0058 0.0064 -1.0000
vn 0.0506 -0.0000 0.9987
vn -0.0058 0.0064 1.0000
vn 0.0506 -0.0000 -0.9987
vn 0.0726 0.0633 0.9954
vn 0.0617 0.0221 0.9979
vn -0.9239 0.3827 -0.0000
vn 0.0619 0.0223 -0.9978
vn 0.0906 -0.3383 -0.9367
vn 0.0906 -0.3383 0.9367
vn 0.2473 -0.0663 0.9667
vn -0.0000 -0.3645 -0.9312
vn 0.2473 -0.0663 -0.9667
vn 0.2377 -0.0256 0.9710
vn -0.0000 -0.3645 0.9312
vn -0.0906 -0.3383 0.9367
vn -0.2092 -0.2092 -0.9552
vn -0.2364 -0.0000 0.9717
vn 0.2092 -0.2092 0.9552
vn -0.2473 -0.0663 0.9667
vn 0.2092 -0.2092 -0.9552
vn -0.2364 -0.0000 -0.9717
vn 0.0761 0.0817 0.9937
vn -0.3827 0.9239 -0.0000
vn 0.2588 0.9659 -0.0000
vn 0.7071 0.7071 -0.0000
vn 0.9659 0.2588 -0.0000
vn -0.2588 0.9659 -0.0000
vn -0.7071 0.7071 -0.0000
vn -0.9659 0.2588 -0.0000
vn 0.5528 -0.5785 -0.5998
vn -0.5954 -0.6296 0.4991
vn 0.5528 -0.5785 0.5998
vn -0.5954 -0.6296 -0.4991
vn 0.7026 -0.1593 -0.6936
vn 0.7026 -0.1593 0.6936
vn -0.7403 -0.1504 -0.6553
vn -0.7403 -0.1504 0.6553
vn -0.0083 -0.6800 -0.7331
vn 0.6843 -0.7292 -0.0018
vn -0.5966 -0.8025 -0.0000
vn -0.0083 -0.6800 0.7331
vn 0.6843 -0.7292 0.0018
vn 0.7071 -0.7071 -0.0000
vn -0.6070 -0.7947 -0.0000
vn 0.7094 -0.0000 0.7048
vn 0.7094 -0.0000 -0.7048
vn -0.7529 0.0085 -0.6580
vn -0.6810 -0.0000 0.7323
vn -0.6810 -0.0000 -0.7323
vn -0.2063 0.7048 0.6787
vn -0.2063 0.7048 -0.6787
vn -0.6272 0.3251 0.7078
vn -0.6272 0.3251 -0.7078
vn 0.0412 0.7503 0.6598
vn -0.6762 0.0106 0.7366
vn -0.6762 0.0106 -0.7366
vn 0.0412 0.7503 -0.6598
vn -0.7529 0.0085 0.6580
vn -0.0014 -0.0127 0.9999
vn -0.0000 -0.0000 -1.0000
vn -0.0000 -0.0001 -1.0000
vn -0.0000 -0.0000 1.0000
vn -0.0000 -0.0001 1.0000
vn 0.0730 0.0631 -0.9953
vn 0.0763 0.0810 -0.9938
vt 0.751895 0.333118
vt 0.757026 0.271665
vt 0.829349 0.271665
vt 0.814342 0.333118
vt 0.543804 0.963694
vt 0.579917 0.963718
vt 0.579728 0.973944
vt 0.545599 0.973922
vt 0.428929 0.347581
vt 0.354919 0.347581
vt 0.354166 0.339421
vt 0.429682 0.339421
vt 0.621533 0.333118
vt 0.606526 0.271665
vt 0.678848 0.271665
vt 0.683980 0.333118
vt 0.174313 0.644837
vt 0.174313 0.583348
vt 0.251428 0.583348
vt 0.236434 0.644837
vt 0.044277 0.644837
vt 0.029283 0.583348
vt 0.106398 0.583348
vt 0.106398 0.644837
vt 0.165739 0.393059
vt 0.166827 0.388308
vt 0.248057 0.339421
vt 0.169961 0.447018
vt 0.091393 0.726104
vt 0.091393 0.940690
vt 0.028945 0.940690
vt 0.026056 0.938540
vt 0.026056 0.728254
vt 0.029272 0.726104
vt 0.606524 0.028563
vt 0.678848 0.028563
vt 0.757026 0.028563
vt 0.829351 0.028563
vt 0.169516 0.339472
vt 0.284222 0.359588
vt 0.263396 0.347581
vt 0.361441 0.359652
vt 0.032654 0.339421
vt 0.111195 0.339472
vt 0.113884 0.388308
vt 0.883297 0.781751
vt 0.927926 0.781751
vt 0.930329 0.820092
vt 0.880894 0.820092
vt 0.508744 0.574215
vt 0.521373 0.590609
vt 0.503337 0.578822
vt 0.162670 0.390382
vt 0.118041 0.390382
vt 0.352052 0.578538
vt 0.347654 0.590609
vt 0.262475 0.590609
vt 0.280511 0.578822
vt 0.422407 0.359652
vt 0.436194 0.590609
vt 0.431796 0.578538
vt 0.032017 0.334341
vt 0.032177 0.271907
vt 0.311088 0.272099
vt 0.310928 0.334533
vt 0.431735 0.720955
vt 0.414376 0.782100
vt 0.407481 0.780135
vt 0.426005 0.714883
vt 0.316465 0.334533
vt 0.316305 0.272099
vt 0.595216 0.271907
vt 0.595376 0.334341
vt 0.159308 0.726104
vt 0.159307 0.940690
vt 0.378013 0.720955
vt 0.330616 0.676225
vt 0.333163 0.667150
vt 0.383743 0.714884
vt 0.543869 0.659896
vt 0.579917 0.659929
vt 0.479132 0.676225
vt 0.476585 0.667150
vt 0.545669 0.649725
vt 0.316352 0.029318
vt 0.595227 0.028908
vt 0.872565 0.277177
vt 0.872588 0.215750
vt 0.971030 0.215519
vt 0.971010 0.276946
vt 0.275104 0.574215
vt 0.114970 0.393059
vt 0.110706 0.447018
vt 0.520452 0.347581
vt 0.499626 0.359588
vt 0.032166 0.028908
vt 0.311042 0.029318
vt 0.973922 0.471758
vt 0.973944 0.533185
vt 0.875499 0.532955
vt 0.875479 0.471528
vt 0.954341 0.041826
vt 0.971053 0.079466
vt 0.872591 0.079844
vt 0.872565 0.776863
vt 0.872565 0.715375
vt 0.945027 0.715375
vt 0.945027 0.776863
vt 0.086409 0.651921
vt 0.089119 0.649725
vt 0.161581 0.649725
vt 0.164292 0.651921
vt 0.874618 0.579045
vt 0.942974 0.579045
vt 0.878485 0.538074
vt 0.939108 0.538074
vt 0.875456 0.335476
vt 0.973919 0.335856
vt 0.414364 0.841251
vt 0.431696 0.902429
vt 0.425963 0.908544
vt 0.407467 0.843258
vt 0.260782 0.339421
vt 0.378053 0.902429
vt 0.395385 0.841252
vt 0.402281 0.843259
vt 0.383785 0.908544
vt 0.265944 0.963694
vt 0.330674 0.947246
vt 0.333225 0.956370
vt 0.264148 0.973923
vt 0.437094 0.598769
vt 0.346754 0.598769
vt 0.479074 0.947246
vt 0.476523 0.956370
vt 0.523066 0.339421
vt 0.229831 0.963718
vt 0.230020 0.973944
vt 0.524006 0.598769
vt 0.259842 0.598769
vt 0.395372 0.782101
vt 0.402267 0.780135
vt 0.265879 0.659896
vt 0.229831 0.659929
vt 0.230016 0.649756
vt 0.264079 0.649725
vt 0.579731 0.649756
vt 0.872565 0.026224
vt 0.913116 0.026056
vt 0.935923 0.862204
vt 0.875300 0.862204
vt 0.743389 0.731638
vt 0.709313 0.731638
vt 0.709313 0.649725
vt 0.743389 0.649725
vt 0.672312 0.505064
vt 0.738567 0.505064
vt 0.738567 0.586977
vt 0.672312 0.586977
vt 0.852852 0.897809
vt 0.818756 0.898690
vt 0.818756 0.814179
vt 0.852852 0.809796
vt 0.852852 0.738624
vt 0.818756 0.734241
vt 0.818756 0.649730
vt 0.852852 0.650611
vt 0.743389 0.898695
vt 0.709313 0.898695
vt 0.709313 0.816782
vt 0.743389 0.816782
vt 0.672312 0.419919
vt 0.738567 0.419919
vt 0.606525 0.586977
vt 0.606525 0.505064
vt 0.585103 0.731638
vt 0.585103 0.649725
vt 0.638996 0.649725
vt 0.638996 0.731638
vt 0.738567 0.338006
vt 0.809795 0.338006
vt 0.809795 0.419919
vt 0.867379 0.338006
vt 0.867379 0.419919
vt 0.748576 0.731638
vt 0.748576 0.649725
vt 0.672312 0.338006
vt 0.606525 0.419919
vt 0.606525 0.338006
vt 0.585103 0.898695
vt 0.585103 0.816782
vt 0.638996 0.816782
vt 0.638996 0.898695
vt 0.809795 0.505064
vt 0.809795 0.586977
vt 0.867379 0.505064
vt 0.867379 0.586977
vt 0.748576 0.898695
vt 0.748576 0.816782
vt 0.598110 0.029098
vt 0.595170 0.026056
vt 0.601338 0.026414
vt 0.280914 0.365565
vt 0.278179 0.363927
vt 0.284222 0.363003
vt 0.029284 0.029097
vt 0.026056 0.026414
vt 0.032224 0.026056
vt 0.502934 0.365565
vt 0.499626 0.363003
vt 0.505669 0.363927
vt 0.598099 0.272099
vt 0.598259 0.334533
vt 0.029134 0.334533
vt 0.029294 0.272099
vt 0.254655 0.583199
vt 0.239650 0.644687
vt 0.041061 0.644687
vt 0.026056 0.583199
vt 0.316290 0.026454
vt 0.757810 0.026056
vt 0.829351 0.026079
vt 0.421085 0.363034
vt 0.311104 0.026454
vt 0.606524 0.026079
vt 0.678065 0.026056
vt 0.362763 0.363034
vt 0.251365 0.339956
vt 0.973916 0.215704
vt 0.973893 0.277131
vt 0.872616 0.533140
vt 0.872593 0.471713
vt 0.872565 0.860672
vt 0.877574 0.819921
vt 0.933649 0.819921
vt 0.938658 0.860672
vt 0.956290 0.039880
vt 0.973944 0.079647
vt 0.892168 0.297835
vt 0.872565 0.335656
vt 0.890219 0.295889
vt 0.880226 0.782144
vt 0.930995 0.782144
vt 0.029346 0.339956
vt 0.221429 0.726104
vt 0.224645 0.728254
vt 0.224645 0.938540
vt 0.221755 0.940690
vt 0.470551 0.811728
vt 0.333001 0.811734
vt 0.933393 0.282065
vt 0.973944 0.282234
s 0
f 5/1/1 8/2/1 82/3/1 60/4/1
f 130/5/2 2/6/2 21/7/2 41/8/2
f 14/9/3 13/10/3 25/11/3 20/12/3
f 59/13/1 71/14/1 7/15/1 6/16/1
f 3/17/4 10/18/4 88/19/4 62/20/4
f 65/21/4 73/22/4 9/23/4 4/24/4
f 101/25/4 103/26/4 85/27/4 17/28/4
f 4/29/3 5/30/3 60/31/3 61/32/3 64/33/3 65/34/3
f 71/14/1 69/35/1 91/36/1 7/15/1
f 8/2/1 92/37/1 78/38/1 82/3/1
f 103/26/4 96/39/4 85/27/4
f 76/40/3 125/41/3 13/10/3 94/42/3
f 77/43/4 95/44/4 100/45/4
f 98/46/5 102/47/5 121/48/5 113/49/5
f 67/50/3 1/51/3 68/52/3
f 102/53/4 98/54/4 100/45/4 103/26/4
f 93/55/3 12/56/3 124/57/3 79/58/3
f 94/42/3 13/10/3 14/9/3 97/59/3
f 11/60/3 90/61/3 68/52/3 1/51/3
f 61/62/6 83/63/6 72/64/6 64/65/6
f 6/16/1 7/15/1 8/2/1 5/1/1
f 131/66/7 132/67/7 43/68/7 42/69/7
f 63/70/8 89/71/8 70/72/8 58/73/8
f 3/74/3 6/75/3 5/30/3 4/29/3
f 136/76/9 137/77/9 31/78/9 29/79/9
f 2/6/10 130/5/10 134/80/10 1/81/10
f 134/80/11 133/82/11 46/83/11 48/84/11
f 90/61/3 11/60/3 12/56/3 93/55/3
f 89/71/12 84/85/12 66/86/12 70/72/12
f 4/87/13 9/88/13 108/89/13 106/90/13
f 124/57/3 80/91/3 79/58/3
f 100/45/4 99/92/4 16/93/4 77/43/4
f 7/15/1 91/36/1 92/37/1 8/2/1
f 97/59/3 14/9/3 2/94/3 86/95/3
f 83/63/14 81/96/14 74/97/14 72/64/14
f 10/98/15 3/99/15 105/100/15 111/101/15
f 116/102/16 115/103/16 16/104/16
f 107/105/4 109/106/4 110/107/4 104/108/4
f 3/74/3 4/29/3 106/109/3 107/110/3 104/111/3 105/112/3
f 109/106/4 114/113/4 119/114/4 110/107/4
f 9/88/17 16/104/17 115/103/17 108/89/17
f 117/115/18 123/116/18 119/114/18 114/113/18
f 118/117/19 17/118/19 10/98/19 111/101/19
f 127/119/20 128/120/20 37/121/20 36/122/20
f 13/10/3 125/41/3 24/123/3 25/11/3
f 139/124/21 140/125/21 51/126/21 50/127/21
f 142/128/22 141/129/22 54/130/22 56/131/22
f 132/67/23 127/119/23 36/122/23 43/68/23
f 12/56/3 11/60/3 23/132/3 18/133/3
f 129/134/24 130/5/24 41/8/24 39/135/24
f 2/94/3 14/9/3 20/12/3 21/136/3
f 125/137/25 142/128/25 56/131/25 24/138/25
f 11/60/3 1/51/3 22/139/3 23/132/3
f 124/57/3 12/56/3 18/133/3 19/140/3
f 140/125/26 135/141/26 28/142/26 51/126/26
f 135/141/27 136/76/27 29/79/27 28/142/27
f 133/82/28 131/66/28 42/69/28 46/83/28
f 138/143/29 124/144/29 19/145/29 33/146/29
f 141/129/30 139/124/30 50/127/30 54/130/30
f 137/77/31 138/143/31 33/146/31 31/78/31
f 128/120/32 129/134/32 39/135/32 37/121/32
f 1/81/33 134/80/33 48/84/33 22/147/33
f 16/104/34 99/148/34 112/149/34 116/102/34
f 113/49/35 121/48/35 123/150/35 117/151/35
f 18/152/1 32/153/1 33/154/1 19/155/1
f 27/156/5 52/157/5 51/158/5 28/159/5
f 24/160/4 56/161/4 57/162/4 25/163/4
f 20/164/4 40/165/4 41/166/4 21/167/4
f 22/168/1 48/169/1 49/170/1 23/171/1
f 25/163/4 57/162/4 40/165/4 20/164/4
f 44/172/5 35/173/5 52/157/5 27/156/5
f 23/171/1 49/170/1 32/153/1 18/152/1
f 27/156/36 28/159/36 29/174/36 26/175/36
f 26/176/37 29/177/37 31/178/37 30/179/37
f 30/179/38 31/178/38 33/154/38 32/153/38
f 35/173/39 36/180/39 37/181/39 34/182/39
f 34/182/40 37/181/40 39/183/40 38/184/40
f 38/185/41 39/186/41 41/166/41 40/165/41
f 43/187/36 44/172/36 45/188/36 42/189/36
f 42/190/37 45/191/37 47/192/37 46/193/37
f 46/193/38 47/192/38 49/170/38 48/169/38
f 44/172/36 27/156/36 26/175/36 45/188/36
f 45/191/37 26/176/37 30/179/37 47/192/37
f 47/192/38 30/179/38 32/153/38 49/170/38
f 51/158/39 52/157/39 53/194/39 50/195/39
f 50/195/40 53/194/40 55/196/40 54/197/40
f 54/198/41 55/199/41 57/162/41 56/161/41
f 52/157/39 35/173/39 34/182/39 53/194/39
f 53/194/40 34/182/40 38/184/40 55/196/40
f 55/199/41 38/185/41 40/165/41 57/162/41
f 43/187/5 36/180/5 35/173/5 44/172/5
f 69/200/42 66/86/42 67/201/42 68/202/42
f 74/203/43 75/204/43 76/40/43 77/205/43
f 78/206/44 79/207/44 80/208/44 81/96/44
f 84/209/45 85/210/45 86/95/45 87/211/45
f 98/54/4 99/92/4 100/45/4
f 101/25/4 102/53/4 103/26/4
f 71/212/46 59/213/46 58/73/46 70/72/46
f 83/63/47 61/62/47 60/214/47 82/215/47
f 89/216/48 63/217/48 62/20/48 88/19/48
f 64/218/49 72/219/49 73/22/49 65/21/49
f 87/220/50 67/201/50 66/86/50 84/85/50
f 93/221/51 79/222/51 78/38/51 92/37/51
f 97/59/52 86/95/52 85/210/52 96/223/52
f 80/208/53 75/224/53 74/97/53 81/96/53
f 68/225/54 90/226/54 91/36/54 69/35/54
f 90/226/55 93/221/55 92/37/55 91/36/55
f 76/40/52 94/42/52 95/227/52 77/205/52
f 94/42/56 97/59/56 96/223/56 95/227/56
f 81/96/57 83/63/57 82/215/57 78/206/57
f 69/200/58 71/212/58 70/72/58 66/86/58
f 84/228/59 89/216/59 88/19/59 85/27/59
f 109/229/60 107/230/60 106/90/60 108/89/60
f 111/101/61 105/100/61 104/231/61 110/232/61
f 116/233/62 112/234/62 113/49/62 117/151/62
f 120/235/63 122/236/63 123/150/63 121/48/63
f 115/103/64 116/102/64 117/237/64 114/238/64
f 122/239/65 118/117/65 119/240/65 123/241/65
f 98/46/66 113/49/66 112/234/66 99/242/66
f 114/238/67 109/229/67 108/89/67 115/103/67
f 118/117/68 111/101/68 110/232/68 119/240/68
f 101/243/69 120/235/69 121/48/69 102/47/69
f 72/219/70 74/244/70 77/43/70 73/22/70
f 62/245/3 63/246/3 58/247/3 59/248/3 6/75/3 3/74/3
f 2/94/3 87/211/3 86/95/3
f 1/51/3 67/50/3 87/211/3 2/94/3
f 125/41/3 75/204/3 80/91/3 124/57/3
f 75/204/3 125/41/3 76/40/3
f 125/137/71 124/144/71 138/143/71 142/128/71
f 15/249/72 128/120/72 127/119/72
f 15/249/72 129/134/72 128/120/72
f 15/249/73 130/5/73 129/134/73
f 15/249/72 132/67/72 131/66/72
f 15/249/72 131/66/72 133/82/72
f 15/249/72 133/82/72 134/80/72
f 15/249/72 127/119/72 132/67/72
f 15/249/72 134/80/72 130/5/72
f 126/250/74 136/76/74 135/141/74
f 126/250/74 137/77/74 136/76/74
f 126/250/74 138/143/74 137/77/74
f 126/250/74 140/125/74 139/124/74
f 126/250/74 139/124/74 141/129/74
f 126/250/75 141/129/75 142/128/75
f 126/250/74 135/141/74 140/125/74
f 126/250/74 142/128/74 138/143/74
f 9/23/4 73/22/4 77/43/4 16/93/4
f 17/28/4 85/27/4 88/19/4 10/18/4
f 95/44/4 96/39/4 103/26/4 100/45/4
f 17/118/76 118/117/76 122/239/76
f 122/239/77 120/251/77 101/252/77 17/118/77
